<svg xmlns="http://www.w3.org/2000/svg" viewBox="0 0 1024 1024" width="1024" height="1024">
  <!-- Background -->
  <rect width="1024" height="1024" rx="216" ry="216" fill="#18181B"/>

  <!-- Anvil -->
  <path d="
    M 112,320
    L 212,180
    L 872,180
    C 892,180 912,200 912,221
    L 912,279
    C 912,300 892,320 872,320
    L 672,320
    L 672,622
    L 792,622
    C 812,622 832,643 832,663
    L 832,799
    C 832,820 812,840 792,840
    L 232,840
    C 212,840 192,820 192,799
    L 192,663
    C 192,643 212,622 232,622
    L 372,622
    L 372,320
    L 212,320
    Z
  " fill="#FAFAFA"/>

  <!-- Spark 1 (large) -->
  <path d="M 604,80 L 609,99 L 628,104 L 609,109 L 604,128 L 599,109 L 580,104 L 599,99 Z" fill="#F97316"/>

  <!-- Spark 2 (medium) -->
  <path d="M 756,150 L 759,163 L 772,166 L 759,169 L 756,182 L 753,169 L 740,166 L 753,163 Z" fill="#FB923C"/>

  <!-- Spark 3 (small) -->
  <path d="M 690,60 L 692,68 L 700,70 L 692,72 L 690,80 L 688,72 L 680,70 L 688,68 Z" fill="#FDBA74"/>
</svg>
